<svg width="1200" height="1200" viewBox="0 0 1200 1200" fill="none" xmlns="http://www.w3.org/2000/svg">
<mask id="mask0_409_3640" style="mask-type:alpha" maskUnits="userSpaceOnUse" x="0" y="0" width="1197" height="1197">
<circle cx="598.033" cy="598.033" r="598.033" fill="#D9D9D9"/>
</mask>
<g mask="url(#mask0_409_3640)">
<path d="M925.883 1091.76C923.138 1093.73 920.001 1095.69 917.256 1097.65C914.118 1099.61 911.373 1101.57 908.236 1103.14C905.491 1104.71 903.138 1106.27 900.393 1107.84C900.001 1108.24 899.609 1108.24 899.216 1108.63C890.197 1114.12 880.785 1119.22 871.373 1123.92C868.628 1125.49 865.491 1127.06 862.746 1128.24C862.746 1128.24 862.354 1128.63 861.962 1128.63C858.824 1130.2 855.687 1131.76 852.55 1133.33C846.275 1136.47 839.609 1139.22 833.334 1141.96C830.197 1143.53 826.667 1144.71 823.53 1145.88C820.393 1147.06 816.864 1148.63 813.726 1149.8C810.589 1150.98 807.06 1152.55 803.922 1153.73C803.922 1153.73 803.922 1153.73 803.53 1153.73C800.393 1154.9 796.864 1156.08 793.726 1157.25C786.667 1159.61 779.216 1161.96 772.158 1164.31C769.805 1165.1 767.06 1165.88 764.707 1166.67C757.256 1169.02 749.805 1170.98 742.354 1172.55C739.609 1173.33 736.864 1173.73 733.726 1174.51C726.667 1176.08 719.216 1177.65 712.158 1179.22C710.589 1179.61 709.413 1179.61 707.844 1180C705.491 1180.39 702.746 1180.78 700.393 1181.18C696.864 1181.57 693.726 1182.35 690.197 1182.74C688.628 1183.14 687.06 1183.14 685.491 1183.53C683.53 1183.92 681.177 1184.31 678.824 1184.31C672.55 1185.1 665.883 1185.88 659.609 1186.67C657.648 1187.06 655.295 1187.06 653.334 1187.45H652.942C650.197 1187.84 647.452 1187.84 644.707 1188.24C641.962 1188.63 639.217 1188.63 636.471 1188.63C634.903 1188.63 632.942 1189.02 631.373 1189.02C628.236 1189.02 625.491 1189.41 622.746 1189.41C618.824 1189.41 615.295 1189.8 611.373 1189.8C607.452 1189.8 603.922 1189.8 600.001 1189.8C597.256 1189.8 594.511 1189.8 591.765 1189.8C426.275 1187.45 277.648 1117.25 171.373 1005.88C171.373 1005.88 171.373 1005.49 170.981 1005.49C159.216 994.902 169.413 938.431 216.864 902.745C276.471 857.647 419.217 829.412 419.217 829.412C419.217 829.412 474.511 820.392 679.609 863.137C799.609 888.235 890.981 924.706 941.962 1023.53C952.55 1043.92 963.138 1075.29 925.883 1091.76Z" fill="white"/>
<path d="M680.785 858.823C756.079 874.118 836.471 890.588 898.432 940.392C919.216 957.255 932.942 981.961 944.315 1005.88C949.805 1017.65 955.295 1029.8 959.609 1042.75C961.962 1051.37 965.491 1061.18 963.53 1071.37C963.138 1074.12 960.785 1077.65 958.824 1079.61C949.805 1088.63 940.001 1094.12 930.197 1101.18C872.55 1141.18 806.275 1169.41 737.648 1184.31C584.707 1217.65 419.216 1191.76 284.707 1111.37C240.001 1084.31 198.824 1051.37 163.53 1012.55C159.609 1007.84 159.609 1000 159.609 994.902C160.001 983.137 163.138 971.765 167.06 961.176C176.471 936.863 188.628 912.549 209.413 895.686C224.315 885.49 240.393 876.863 256.864 869.804C308.628 847.843 363.138 832.549 419.216 826.274C423.922 825.882 424.707 832.549 420.001 833.333C366.275 844.314 312.942 860.784 263.138 883.137C245.099 892.157 225.883 900 211.373 914.118C197.648 929.02 187.844 947.451 180.001 966.274C174.903 977.647 171.373 995.686 172.942 1004.71C197.648 1034.12 226.667 1060 258.04 1082.35C429.805 1202.35 690.589 1210.2 873.334 1110.2C889.805 1101.18 905.883 1090.98 921.177 1080.39C928.628 1075.29 936.471 1070.98 942.354 1065.1C942.746 1064.71 942.354 1065.1 942.354 1065.49C942.354 1065.88 941.962 1066.27 941.962 1066.27C942.354 1061.57 940.785 1055.29 938.824 1049.02C931.765 1026.27 920.393 1002.35 908.236 981.569C889.02 950.588 856.471 930.98 823.53 915.294C800.785 904.706 776.863 896.471 752.55 888.627C728.236 880.784 703.53 874.118 678.824 868.235C672.55 866.667 674.511 857.647 680.785 858.823Z" fill="black"/>
<path d="M1056.08 1334.9H64.3113C64.3113 1334.9 110.586 1185.1 145.488 1046.67C159.213 992.55 184.703 918.824 216.076 897.256C259.213 867.452 330.586 850.589 362.743 839.216C385.096 831.373 402.35 828.628 418.429 824.314C418.429 826.275 418.821 827.844 418.821 829.805C418.821 829.805 454.507 909.805 564.703 954.118C654.507 990.589 685.88 976.079 694.115 935.687C699.213 909.805 712.154 903.922 703.919 890.197C699.213 886.275 696.076 880.393 694.507 874.511L691.37 861.569C698.821 860.001 705.88 858.04 712.939 855.687C715.292 854.903 717.252 854.118 719.605 853.334C763.135 878.04 823.135 885.883 895.684 939.216C908.625 948.628 946.272 989.413 961.958 1088.63C983.919 1219.22 1056.08 1334.9 1056.08 1334.9Z" fill="black"/>
<path d="M1063.14 1338.82C768.627 1340 354.509 1343.92 64.3129 1343.14C59.607 1343.14 56.0776 1339.61 56.0776 1334.9C67.4502 1286.27 85.8816 1216.08 98.4306 1167.06C108.235 1127.45 120.391 1083.14 130.195 1043.14C144.313 990.98 161.96 923.137 206.274 888.627C220.784 879.216 236.862 872.549 252.156 866.667C285.882 854.118 320.391 844.706 354.901 834.117C374.509 826.667 396.47 821.961 416.862 816.078C421.176 814.902 425.489 817.255 426.666 821.176C427.058 822.353 427.058 827.451 427.45 828.627L419.215 821.176C422.352 821.176 425.489 823.137 426.666 825.882C429.803 832.549 434.117 839.608 438.431 845.882C479.999 905.882 547.058 944.314 616.862 962.353C636.862 966.666 663.529 971.765 678.038 954.118C687.45 941.961 687.058 923.137 694.509 909.804C697.254 903.529 700.391 899.608 697.254 894.118L698.823 896.078C693.725 891.372 689.803 885.49 687.842 879.216C686.274 873.333 685.097 868.235 683.921 863.137C682.744 858.823 685.882 854.118 690.195 853.333C699.215 851.372 708.627 848.627 717.254 845.49C719.607 844.706 721.96 845.098 723.921 845.882C735.293 850.98 747.058 855.294 759.215 859.608C797.254 871.765 835.293 884.706 870.195 904.706C881.96 911.372 893.333 918.823 904.313 926.667C917.254 936.47 925.489 947.451 933.725 960.392C963.529 1007.06 972.94 1060.78 982.744 1114.12C997.646 1183.14 1023.53 1249.8 1054.12 1313.33L1058.43 1321.96L1060.39 1326.27L1061.57 1328.24L1061.96 1329.41L1062.35 1329.8C1062.35 1329.41 1062.74 1330.2 1063.14 1331.37C1064.71 1334.12 1064.31 1337.25 1063.14 1338.82ZM1049.02 1330.98C1047.84 1332.55 1047.45 1335.29 1048.23 1337.25C1048.63 1338.43 1049.02 1339.22 1049.02 1338.82L1048.63 1338.43L1047.84 1337.25L1046.67 1335.29C1020.78 1290.98 999.215 1244.31 982.352 1196.08C971.372 1164.71 962.352 1132.94 956.47 1100C949.411 1056.47 938.431 1010.98 914.901 973.333C908.627 963.529 900.784 952.941 891.372 945.882C880.784 938.431 870.195 930.98 859.215 924.706C837.254 911.372 813.725 900.784 789.803 891.372C765.882 881.568 740.391 874.117 716.47 860.392L723.136 860.784C713.725 864.314 703.921 867.059 693.725 869.019L699.999 859.216C702.352 867.843 702.744 878.039 709.803 883.921C714.117 888.627 716.078 896.863 714.901 903.529C713.725 909.412 711.372 913.333 709.803 916.863C706.274 924.314 703.921 930.588 702.352 938.823C688.627 1007.06 609.803 980.784 565.097 963.137C502.352 938.039 443.921 894.118 412.156 833.333L419.607 838.039C415.293 838.039 411.764 834.902 411.372 830.588L410.98 825.49L421.176 832.549C399.215 836.47 379.607 839.608 359.215 847.059C312.548 861.568 262.744 873.725 222.352 901.568C180.391 932.157 156.47 1040.78 143.136 1090.98C128.627 1146.27 113.333 1201.18 97.2541 1255.69C89.0188 1283.14 80.7835 1310.2 72.1561 1337.65L64.3129 1327.06C349.019 1326.67 760.391 1328.63 1049.02 1330.98Z" fill="black"/>
<path d="M658.429 983.531C658.821 983.923 658.821 983.923 659.214 984.315C659.214 983.923 659.214 983.531 659.214 983.531C659.214 983.531 658.821 983.531 658.429 983.531Z" fill="white"/>
<path d="M752.157 838.04C752.157 838.04 752.157 800.393 719.216 790.589C658.432 772.158 543.53 763.922 466.667 763.922C466.667 763.922 434.118 766.275 422.354 772.158C410.981 777.648 397.255 781.177 394.118 806.667C392.55 819.216 392.55 839.216 392.942 856.864C393.334 880.393 402.746 903.138 419.216 920.001C445.491 947.06 500.001 982.354 562.353 992.942C712.55 1018.04 753.334 952.55 752.157 917.648C750.589 877.256 752.157 838.04 752.157 838.04Z" fill="black"/>
<path d="M743.922 837.648C743.138 820.785 734.118 802.746 716.863 798.04C711.373 796.471 705.883 794.903 700.785 793.726C624.314 776.863 545.099 772.942 466.667 771.765C456.471 772.942 436.863 774.511 425.491 779.216C420.785 781.569 414.903 783.922 410.981 787.06C401.961 794.903 401.569 808.628 401.177 820.785C400.785 827.844 400.785 834.903 400.785 841.962C398.432 889.805 419.609 915.295 457.648 940.785C486.275 960.393 518.432 974.511 552.55 982.354C599.216 991.373 650.981 995.687 695.687 977.648C719.216 968.236 741.177 948.236 743.922 922.354C744.314 916.863 743.922 907.452 743.922 901.962C743.138 881.569 743.138 858.432 743.922 837.648ZM760.001 838.04C759.609 858.824 759.609 881.177 760.001 901.962C760.001 908.628 760.785 918.04 760.001 924.314C756.471 957.256 730.197 981.962 701.569 993.726C656.471 1012.55 606.275 1009.41 559.216 1001.96C549.02 1000 536.471 997.256 526.667 994.118C484.314 980.393 444.707 958.432 412.942 927.06C390.197 904.707 381.569 873.334 383.53 842.354C384.707 819.609 380.785 792.55 399.609 774.903C405.491 770.197 411.373 767.452 417.648 764.707C433.726 758.432 449.412 757.256 465.883 755.687C518.824 756.079 571.765 758.824 624.707 765.099C656.079 769.02 687.844 773.334 718.432 782.354L720.785 783.138L723.53 784.314C737.256 790.981 743.138 805.491 750.981 817.256C756.079 823.53 759.609 830.197 760.001 838.04Z" fill="black"/>
<path d="M395.685 856.471C404.313 982.354 598.43 1116.86 713.725 1047.06C743.921 1026.67 752.156 987.844 751.372 953.726C751.372 941.961 750.195 930.197 749.411 918.04C749.019 915.295 753.725 914.51 754.117 917.256C770.587 983.138 762.352 1056.08 685.489 1075.69C577.646 1101.96 455.293 1022.75 407.842 927.844C396.862 905.883 389.803 881.569 389.411 857.256C389.803 853.334 395.293 852.55 395.685 856.471Z" fill="white"/>
<path d="M717.644 963.138C709.409 1003.53 656.076 1027.84 566.272 991.373C472.939 953.726 432.546 863.922 422.35 837.255C477.644 733.726 439.213 661.961 439.213 661.961C566.664 650.981 678.037 800 678.037 800L695.292 873.726C696.86 880 699.997 885.491 704.703 889.412C712.939 903.922 722.743 937.255 717.644 963.138Z" fill="white"/>
<path d="M420.391 838.432C427.842 827.059 432.548 813.726 435.685 800.785C441.568 773.726 443.529 746.275 443.921 718.824V708.628C442.744 698.432 439.215 687.844 435.293 678.432C430.195 665.883 448.627 658.04 454.509 670.589C455.293 672.157 455.293 674.902 455.293 676.471C456.47 729.804 458.823 798.432 425.097 842.746C422.744 845.099 418.038 841.569 420.391 838.432Z" fill="black"/>
<path d="M682.351 799.216C688.233 802.746 690.194 807.452 690.978 812.158C693.331 821.569 692.547 831.766 694.9 841.569C696.861 850.981 702.743 860.001 704.312 869.805C706.272 880.001 712.155 901.569 714.508 912.158C715.292 914.511 713.723 917.256 710.978 917.648C709.41 918.04 708.233 917.648 707.057 916.864C701.959 912.55 699.606 908.236 696.469 902.746C691.371 893.334 687.841 884.707 684.704 874.118C681.959 864.707 683.135 854.511 680.782 844.707C678.821 835.295 673.331 826.275 671.37 816.471C670.194 811.765 669.802 806.667 673.331 800.785C675.684 798.432 679.606 797.648 682.351 799.216Z" fill="black"/>
<path d="M710.587 902.745C635.685 898.824 574.509 875.294 514.901 769.02C565.097 813.334 624.313 830.196 686.666 838.04L694.901 874.118C696.47 880.392 705.882 898.824 710.587 902.745Z" fill="black"/>
<path d="M707.452 888.236C720.785 913.334 728.628 944.706 720.393 972.549C714.118 992.157 696.079 1006.67 676.471 1012.16C630.981 1024.31 578.432 1005.1 538.04 983.53C488.236 955.687 451.373 909.02 427.844 858.04C426.275 854.118 431.765 850.981 434.118 854.902C442.354 871.373 451.765 887.451 462.354 901.961C472.942 916.863 485.099 930.589 498.824 942.745C538.824 978.824 592.942 1001.18 647.06 1001.18C702.746 999.608 723.922 970.196 710.981 916.079C709.02 907.451 705.883 898.432 701.569 890.981C699.216 887.843 705.099 884.314 707.452 888.236Z" fill="black"/>
<path d="M859.215 417.255C866.274 450.196 869.803 476.863 850.587 564.706C831.764 652.157 877.646 670.196 769.019 810.196C724.705 867.451 617.254 851.373 530.195 792.157C500.783 772.157 488.234 720.785 466.274 684.314C449.019 655.687 441.176 685.49 418.431 660.785C387.45 627.059 350.195 559.216 368.627 439.216C398.431 244.706 552.548 221.961 666.666 243.53C781.568 265.49 840.391 330.588 859.215 417.255Z" fill="white"/>
<path d="M438.038 695.686C429.019 680.392 417.254 667.059 406.274 652.941C395.685 638.432 387.058 622.353 379.999 605.883C333.333 491.373 351.372 330.196 465.882 262.745C513.333 235.294 570.587 228.628 623.921 232.941C738.038 241.177 842.744 293.726 867.45 414.51C880.784 467.843 862.744 522.745 852.548 574.902C847.842 600.785 851.764 627.451 851.372 654.118C850.98 681.177 843.529 708.235 833.333 733.334C827.058 750.588 816.078 765.882 804.705 780C785.882 802.745 767.058 825.883 743.136 843.53C737.646 847.451 727.842 849.412 721.176 850.196C702.744 852.941 684.705 853.726 666.274 852.549C594.117 849.412 516.862 814.51 487.842 744.706C486.666 741.961 490.587 740 492.156 742.353C529.803 801.961 598.823 831.373 667.45 835.294C688.627 836.471 710.195 836.079 730.98 831.765C741.176 826.667 750.195 817.647 758.823 809.412C779.999 788.235 801.568 765.49 816.862 739.608C835.293 704.706 845.489 666.667 842.352 627.059C841.568 609.412 841.176 590.981 844.705 573.334C847.842 555.686 851.764 538.824 854.117 520.785C856.47 503.53 857.646 485.883 857.646 468.628C855.685 418.039 839.215 365.883 807.058 326.667C736.078 238.432 568.235 215.294 473.725 275.686C414.117 312.549 386.274 381.569 377.254 448.628C363.529 529.02 367.45 608.235 431.372 666.667L450.195 686.275C457.646 694.902 444.313 705.098 438.038 695.686Z" fill="black"/>
<path d="M484.311 570.98C484.311 570.98 472.155 512.157 414.9 519.215C365.488 525.49 348.233 643.921 460.39 676.863" fill="white"/>
<path d="M455.293 625.49C446.274 620.392 439.999 611.765 439.607 601.176C439.999 593.333 441.176 584.314 439.215 576.471C438.038 569.02 430.195 567.059 424.313 567.451C418.038 568.627 414.117 576.471 412.94 582.745C412.94 583.137 412.548 584.314 412.548 584.706C412.156 586.667 409.019 586.667 408.235 584.706C403.137 569.412 414.509 552.549 430.98 554.51C454.117 556.078 457.254 580.392 452.94 598.823C450.587 606.667 453.725 613.725 458.038 620.392L458.823 621.569C460.784 623.921 457.646 627.059 455.293 625.49Z" fill="black"/>
<path d="M769.018 529.412C774.9 557.255 785.881 583.137 799.606 607.451C811.763 637.255 780.39 665.49 752.547 664.313C749.41 664.313 749.018 660 751.763 659.215C769.41 653.725 785.488 641.961 788.234 623.921C789.41 618.431 787.841 613.725 785.096 609.019C772.155 584.706 764.312 556.862 766.273 529.412C766.273 527.451 769.018 527.451 769.018 529.412Z" fill="black"/>
<path d="M482.352 571.373C473.332 548.235 453.725 526.275 427.45 526.667C425.097 526.275 421.176 527.059 418.823 527.059C412.156 527.451 406.666 529.804 401.568 534.51C376.47 559.608 380.783 603.922 401.176 631.765C408.234 641.569 417.254 650.196 427.45 657.255C437.646 664.314 449.019 669.804 461.176 674.51C463.921 675.294 462.744 679.608 459.999 679.216C433.725 673.726 408.627 660.784 391.372 639.216C364.705 607.059 359.215 553.333 390.979 521.961C398.038 515.686 407.842 510.98 417.646 510.98C420.783 510.98 425.489 510.196 428.627 510.98C445.097 511.765 460.783 520 470.979 532.941C479.999 543.922 485.097 557.255 486.666 570.588C486.666 572.941 483.136 573.726 482.352 571.373Z" fill="black"/>
<path d="M739.216 703.529C714.118 727.451 666.667 708.235 654.118 679.216C652.549 675.686 656.471 672.549 659.608 674.117C666.275 677.647 672.157 681.176 678.432 683.921C696.471 692.157 715.294 698.823 735.294 696.863C739.216 696.078 741.961 700.784 739.216 703.529Z" fill="black"/>
<path d="M683.137 478.431C691.764 477.647 696.078 467.451 691.372 459.608C688.627 455.686 685.098 452.157 680 450.196C665.098 445.49 616.47 456.078 595.294 480.392C576.47 502.745 643.921 481.96 683.137 478.431Z" fill="black"/>
<path d="M786.667 484.705C780.001 482.745 778.04 472.941 783.53 466.666C786.275 463.529 790.197 460.784 794.511 460C807.844 457.647 838.432 469.803 847.06 492.941C854.903 512.941 818.432 492.549 786.667 484.705Z" fill="black"/>
<path d="M622.747 569.412C613.335 569.02 606.276 561.177 607.06 551.765L607.452 540.784C607.845 531.373 615.688 524.314 625.099 525.098C634.511 525.49 641.57 533.333 640.786 542.745L640.394 553.726C640.001 562.745 632.158 569.804 622.747 569.412Z" fill="black"/>
<path d="M787.843 575.294C779.215 574.901 772.549 567.45 772.941 558.823L773.333 548.627C773.725 539.999 781.176 533.333 789.803 533.725C798.431 534.117 805.098 541.568 804.705 550.196L804.313 560.392C803.921 569.019 796.47 575.686 787.843 575.294Z" fill="black"/>
<path d="M658.039 548.235C645.098 539.607 630.98 533.725 615.294 536.862C610.196 537.647 605.098 539.215 601.96 542.745C600.784 544.313 598.039 543.921 598.039 541.568C598.431 533.725 605.098 528.627 611.372 525.49C623.529 519.215 640.392 520.392 651.372 528.627C655.294 530.98 668.627 545.49 661.568 548.627C660 549.411 659.215 549.019 658.039 548.235Z" fill="black"/>
<path d="M770.194 550.196C770.194 533.726 790.586 527.843 803.135 533.726C810.194 536.863 815.292 543.137 817.253 550.588C818.037 552.941 814.508 554.902 812.939 552.941C806.272 545.098 794.9 541.177 785.88 545.882C783.135 547.451 782.743 548.628 781.959 550.196C781.959 558.039 770.586 557.647 770.194 550.196Z" fill="black"/>
<path d="M936.078 370.196C936.078 320.784 902.745 279.608 857.647 266.667C860 256.863 860.392 246.667 858.039 236.078C850.196 201.961 819.608 178.039 784.706 180.392C770.98 181.176 758.039 186.274 747.451 194.118C731.765 150.98 708.627 136.078 661.961 133.333C637.647 132.157 593.333 140.392 580 186.274C565.882 174.51 545.882 168.627 518.431 168.627C470.588 168.627 431.372 206.274 429.02 253.725C421.569 251.372 413.333 250.196 405.098 250.588C373.333 252.549 347.451 278.431 345.098 310.196C344.314 320.784 346.274 330.98 350.196 340.392C305.49 345.098 270.588 383.137 270.588 429.019C270.588 463.529 290.196 493.725 319.216 508.627C308.627 512.941 293.333 533.725 290.588 551.372C285.882 581.569 299.216 607.843 318.039 618.039C316.078 624.314 315.294 631.765 317.647 639.216C321.176 652.157 331.765 662.353 344.706 665.098C352.549 666.667 360 665.882 366.667 663.137C372.941 676.47 380.784 684.706 387.059 689.804C411.372 709.804 461.176 707.843 447.843 672.941C447.843 672.549 447.843 672.549 447.843 672.157C349.804 634.51 367.451 525.098 415.294 518.823C465.49 512.549 481.176 557.255 483.921 568.235C537.647 533.725 461.176 409.412 540 372.549C610.196 340 683.921 389.412 774.118 401.568C807.451 406.274 838.823 373.333 852.941 391.765C855.686 400 858.039 408.235 860 416.863C863.529 432.157 860.784 446.667 857.255 467.451C852.549 493.725 884.314 475.686 887.451 471.765C895.294 461.961 900.784 450.98 896.863 438.039C918.823 418.823 936.078 402.353 936.078 370.196Z" fill="black"/>
<path d="M796.471 767.864C802.353 736.883 804.314 705.511 799.216 674.53C797.255 662.766 790.196 643.158 779.216 651.785C774.902 655.315 752.549 662.373 748.235 662.766C735.686 663.942 726.275 662.373 717.255 655.315C707.059 647.079 707.059 643.55 704.706 642.766C663.529 629.04 611.765 615.315 594.902 670.609C581.177 715.707 546.667 760.02 521.176 716.099C501.569 682.766 502.745 619.236 500 605.903C493.333 572.962 483.922 556.883 478.431 561.589C478.431 572.177 481.961 697.275 482.353 703.942C485.098 738.452 489.412 749.432 505.098 771.785C520.784 794.138 575.686 854.922 647.059 860.02C718.824 865.119 758.431 859.236 798.431 813.354C834.51 771.785 835.686 685.511 835.686 685.511C818.039 737.668 805.882 754.922 796.471 767.864ZM634.902 679.628C655.294 657.275 685.098 683.158 717.255 685.511C749.02 687.864 761.961 667.864 764.314 703.158C765.098 711.785 766.275 726.295 765.882 736.099C765.882 736.491 765.882 736.883 765.882 737.275C764.706 748.256 761.177 760.413 750.196 767.079C727.059 781.589 689.804 778.06 665.882 773.354C632.549 766.687 625.49 751.393 623.922 744.334C621.569 714.138 626.667 688.648 634.902 679.628Z" fill="black"/>
</g>
</svg>