<svg width="400" height="400" viewBox="0 0 400 400" fill="none" xmlns="http://www.w3.org/2000/svg">
<g clip-path="url(#clip0_20_2)">
<mask id="mask0_20_2" style="mask-type:luminance" maskUnits="userSpaceOnUse" x="0" y="0" width="400" height="400">
<path d="M0 0H400V400H0V0Z" fill="white"/>
</mask>
<g mask="url(#mask0_20_2)">
<mask id="mask1_20_2" style="mask-type:alpha" maskUnits="userSpaceOnUse" x="20" y="0" width="361" height="400">
<path d="M160.51 65C152.048 35 163.53 0 200 0C236.47 0 247.952 35 239.49 65C233.53 86.128 217.776 134.54 208.98 161.32C207.36 166.256 210.632 171.448 215.132 174.062C219.63 176.674 225.628 176.786 229.102 172.922C247.972 151.942 282.168 114.124 297.548 98.412C319.382 76.106 355.532 68.518 373.768 100C392.002 131.48 367.334 158.894 337.038 166.588C315.7 172.008 265.758 182.616 238.09 188.414C232.994 189.482 230.098 194.81 230.098 200C230.098 205.19 232.994 210.518 238.09 211.586C265.758 217.384 315.7 227.992 337.038 233.412C367.334 241.106 392.004 268.518 373.768 300C355.532 331.482 319.382 323.894 297.548 301.588C282.168 285.876 247.972 248.058 229.102 227.076C225.628 223.214 219.63 223.326 215.132 225.938C210.632 228.552 207.36 233.744 208.98 238.678C217.776 265.462 233.53 313.872 239.49 335C247.952 365 236.47 400 200 400C163.53 400 152.048 365 160.51 335C166.47 313.872 182.224 265.462 191.02 238.678C192.64 233.744 189.368 228.552 184.866 225.938C180.37 223.326 174.372 223.214 170.898 227.076C152.028 248.058 117.832 285.876 102.452 301.588C80.6181 323.894 44.4681 331.482 26.2321 300C7.99811 268.518 32.6661 241.106 62.9621 233.412C84.3021 227.992 134.242 217.384 161.91 211.586C167.006 210.518 169.902 205.19 169.902 200C169.902 194.81 167.006 189.482 161.91 188.414C134.242 182.614 84.3001 172.008 62.9621 166.588C32.6661 158.894 7.99611 131.482 26.2321 100C44.4661 68.52 80.6181 76.106 102.452 98.412C117.832 114.124 152.028 151.942 170.898 172.924C174.372 176.786 180.37 176.674 184.866 174.064C189.366 171.448 192.64 166.256 191.02 161.322C182.224 134.538 166.47 86.128 160.51 65Z" fill="white"/>
</mask>
<g mask="url(#mask1_20_2)">
<path d="M400 0H0V400H400V0Z" fill="#DEDEDE"/>
<path d="M400 0H0V400H400V0Z" fill="#DEDEDE" fill-opacity="0.181"/>
<g filter="url(#filter0_f_20_2)">
<path d="M240.5 112H30.5V350H240.5V112Z" fill="#DEDEDE"/>
<path d="M447 0H200.5V281.75H447V0Z" fill="#DEDEDE"/>
</g>
</g>
</g>
<mask id="mask2_20_2" style="mask-type:alpha" maskUnits="userSpaceOnUse" x="20" y="0" width="361" height="400">
<path d="M160.51 65C152.048 35 163.53 0 200 0C236.47 0 247.952 35 239.49 65C233.53 86.128 217.776 134.54 208.98 161.32C207.36 166.256 210.632 171.448 215.132 174.062C219.63 176.674 225.628 176.786 229.102 172.922C247.972 151.942 282.168 114.124 297.548 98.412C319.382 76.106 355.532 68.518 373.768 100C392.002 131.48 367.334 158.894 337.038 166.588C315.7 172.008 265.758 182.616 238.09 188.414C232.994 189.482 230.098 194.81 230.098 200C230.098 205.19 232.994 210.518 238.09 211.586C265.758 217.384 315.7 227.992 337.038 233.412C367.334 241.106 392.004 268.518 373.768 300C355.532 331.482 319.382 323.894 297.548 301.588C282.168 285.876 247.972 248.058 229.102 227.076C225.628 223.214 219.63 223.326 215.132 225.938C210.632 228.552 207.36 233.744 208.98 238.678C217.776 265.462 233.53 313.872 239.49 335C247.952 365 236.47 400 200 400C163.53 400 152.048 365 160.51 335C166.47 313.872 182.224 265.462 191.02 238.678C192.64 233.744 189.368 228.552 184.866 225.938C180.37 223.326 174.372 223.214 170.898 227.076C152.028 248.058 117.832 285.876 102.452 301.588C80.6181 323.894 44.4681 331.482 26.2321 300C7.99811 268.518 32.6661 241.106 62.9621 233.412C84.3021 227.992 134.242 217.384 161.91 211.586C167.006 210.518 169.902 205.19 169.902 200C169.902 194.81 167.006 189.482 161.91 188.414C134.242 182.614 84.3001 172.008 62.9621 166.588C32.6661 158.894 7.99611 131.482 26.2321 100C44.4661 68.52 80.6181 76.106 102.452 98.412C117.832 114.124 152.028 151.942 170.898 172.924C174.372 176.786 180.37 176.674 184.866 174.064C189.366 171.448 192.64 166.256 191.02 161.322C182.224 134.538 166.47 86.128 160.51 65Z" fill="white"/>
</mask>
<g mask="url(#mask2_20_2)">
<g style="mix-blend-mode:overlay">
<path d="M400 0H0V400H400V0Z" fill="#DEDEDE"/>
</g>
</g>
</g>
<defs>
<filter id="filter0_f_20_2" x="-94.5" y="-125" width="666.5" height="600" filterUnits="userSpaceOnUse" color-interpolation-filters="sRGB">
<feFlood flood-opacity="0" result="BackgroundImageFix"/>
<feBlend mode="normal" in="SourceGraphic" in2="BackgroundImageFix" result="shape"/>
<feGaussianBlur stdDeviation="62.5" result="effect1_foregroundBlur_20_2"/>
</filter>
<clipPath id="clip0_20_2">
<rect width="400" height="400" fill="white"/>
</clipPath>
</defs>
</svg>
